<svg xmlns="http://www.w3.org/2000/svg" width="172" height="65" viewBox="0 0 171 65" fill="none">
<path d="M118.087 28.7557C118.147 28.2011 118.182 27.6409 118.182 27.0737C118.182 18.4867 111.187 11.5296 102.557 11.5296C93.9291 11.5296 86.9351 18.4867 86.9351 27.0737C86.9351 35.658 93.9293 42.6124 102.557 42.6124C109.12 42.6124 114.73 38.5949 117.049 32.8868L110.315 31.6865C108.823 34.4638 106 36.3346 102.774 36.3346C98.4906 36.3346 94.9438 33.0575 94.2304 28.7555L118.087 28.7557ZM102.774 17.9807C106.431 17.9807 109.555 20.3767 110.83 23.7682H94.7081C95.9796 20.3768 99.1102 17.9807 102.774 17.9807ZM74.7565 12.1807H82.7356V42.0543H74.7565V12.1807ZM78.749 0C76.2859 0 74.2973 2.03398 74.2973 4.52921C74.2973 7.02061 76.2859 9.04918 78.749 9.04918C81.2021 9.04918 83.195 7.02061 83.195 4.52921C83.195 2.03398 81.2021 0 78.749 0ZM25.9206 2.60256V18.6844H8.72187V2.60256H0V42.0276H8.72187V25.9451H25.9206V42.0276H34.6497V2.60256H25.9206ZM61.9336 12.1945V13.7974C59.6145 12.368 56.8968 11.5469 53.9847 11.5469C45.526 11.5469 38.6655 18.4996 38.6655 27.0798C38.6655 35.6583 45.526 42.6128 53.9847 42.6128C56.7143 42.616 59.3951 41.8767 61.7494 40.4715V42.0278H69.5349V12.1945H61.9336ZM54.3738 36.0637C49.4372 36.0637 45.4464 32.0452 45.4464 27.0833C45.4464 22.1173 49.437 18.0957 54.3738 18.0957C59.3093 18.0957 63.3065 22.1173 63.3065 27.0833C63.3064 32.0452 59.3091 36.0637 54.3738 36.0637ZM134.68 9.40624C127.332 10.7102 121.746 17.2134 121.66 25.0567V42.0542H129.3L129.304 24.7371C129.304 20.7728 132.23 17.5012 136 17.0317L134.68 9.40624Z" fill="black"/>
</svg>
